HIERARCHY
ROOT Hips
{
 OFFSET 0.000000 0.000000 0.000000
 CHANNELS 6 Xposition Yposition Zposition Yrotation Xrotation Zrotation
 JOINT Chest
 {
  OFFSET 0.000000 9.585900 0.002600
  CHANNELS 3 Yrotation Xrotation Zrotation
  JOINT Chest2
  {
   OFFSET 0.000000 9.601200 -0.005300
   CHANNELS 3 Yrotation Xrotation Zrotation
   JOINT Chest3
   {
    OFFSET 0.000000 9.561800 0.000000
    CHANNELS 3 Yrotation Xrotation Zrotation
    JOINT Chest4
    {
     OFFSET 0.000000 9.552100 0.000000
     CHANNELS 3 Yrotation Xrotation Zrotation
     JOINT Neck
     {
      OFFSET 0.000000 14.453000 0.000000
      CHANNELS 3 Yrotation Xrotation Zrotation
      JOINT Head
      {
       OFFSET 0.000000 8.936500 -0.011300
       CHANNELS 3 Yrotation Xrotation Zrotation
       End Site
       {
        OFFSET 0.000000 17.073600 -0.006000
       }
      }
     }
     JOINT RightCollar
     {
      OFFSET -2.921100 9.558500 0.000000
      CHANNELS 3 Yrotation Xrotation Zrotation
      JOINT RightShoulder
      {
       OFFSET -13.519700 0.000000 0.000000
       CHANNELS 3 Yrotation Xrotation Zrotation
       JOINT RightElbow
       {
        OFFSET 0.000000 -29.696600 0.000000
        CHANNELS 3 Yrotation Xrotation Zrotation
        JOINT RightWrist
        {
         OFFSET 0.000000 -24.004700 0.000000
         CHANNELS 3 Yrotation Xrotation Zrotation
         End Site
         {
          OFFSET 0.000000 -17.728500 0.000000
         }
        }
       }
      }
     }
     JOINT LeftCollar
     {
      OFFSET 2.921100 9.558500 0.000000
      CHANNELS 3 Yrotation Xrotation Zrotation
      JOINT LeftShoulder
      {
       OFFSET 13.519700 0.000000 0.000000
       CHANNELS 3 Yrotation Xrotation Zrotation
       JOINT LeftElbow
       {
        OFFSET 0.000000 -29.696600 0.000000
        CHANNELS 3 Yrotation Xrotation Zrotation
        JOINT LeftWrist
        {
         OFFSET 0.000000 -24.004700 0.000000
         CHANNELS 3 Yrotation Xrotation Zrotation
         End Site
         {
          OFFSET 0.000000 -17.728500 0.000000
         }
        }
       }
      }
     }
    }
   }
  }
 }
 JOINT RightHip
 {
  OFFSET -7.771700 -0.012900 -0.001300
  CHANNELS 3 Yrotation Xrotation Zrotation
  JOINT RightKnee
  {
   OFFSET 0.000000 -40.869800 0.001200
   CHANNELS 3 Yrotation Xrotation Zrotation
   JOINT RightAnkle
   {
    OFFSET 0.000000 -39.717900 0.002100
    CHANNELS 3 Yrotation Xrotation Zrotation
    JOINT RightToe
    {
     OFFSET 0.000000 -4.965400 11.033500
     CHANNELS 3 Yrotation Xrotation Zrotation
     End Site
     {
      OFFSET 0.000000 -1.423100 5.872300
     }
    }
   }
  }
 }
 JOINT LeftHip
 {
  OFFSET 7.771700 -0.012900 -0.001300
  CHANNELS 3 Yrotation Xrotation Zrotation
  JOINT LeftKnee
  {
   OFFSET 0.000000 -40.869800 0.001200
   CHANNELS 3 Yrotation Xrotation Zrotation
   JOINT LeftAnkle
   {
    OFFSET 0.000000 -39.717900 0.002100
    CHANNELS 3 Yrotation Xrotation Zrotation
    JOINT LeftToe
    {
     OFFSET 0.000000 -4.965400 11.033500
     CHANNELS 3 Yrotation Xrotation Zrotation
     End Site
     {
      OFFSET 0.000000 -1.423100 5.872300
     }
    }
   }
  }
 }
}
MOTION
Frames: 15
Frame Time: 0.008333
0.000000 85.388000 0.000000 0.000000 -5.767877 0.000000 0.000000 11.653817 0.000000 0.000000 -5.885947 0.000000 0.000000 -0.000000 0.000000 0.000000 -0.000000 0.000000 0.000000 12.528835 0.000000 0.000000 0.711642 0.000000 0.000000 -0.000000 0.000000 0.000000 0.000000 -90.000000 0.000000 -2.309062 0.000000 0.000000 2.309062 0.000000 0.000000 -0.000000 0.000000 0.000000 -0.000000 90.000000 0.000000 -2.309062 0.000000 0.000000 2.309062 0.000000 0.000000 8.520406 0.000000 0.000000 1.905762 0.000000 -0.000000 -4.658285 0.000000 0.000000 -0.000000 0.000000 0.000000 8.520406 0.000000 0.000000 1.905762 0.000000 -0.000000 -4.658285 0.000000 0.000000 -0.000000 0.000000
-35.985334 56.297690 -5.937709 175.483145 -12.489046 -0.316037 1.866991 13.735999 0.275719 0.163982 1.163547 0.052023 0.270715 1.989804 0.097875 1.831178 12.406745 0.744815 3.033556 11.134981 5.130329 2.069066 -13.936208 4.835916 1.384986 0.924808 1.026343 0.306424 -9.793867 -7.776484 -82.784732 -50.535139 120.721061 -15.286454 -4.889460 -9.467513 -5.192725 -0.789819 1.988188 2.287130 -12.132117 4.322170 61.782798 -46.386156 -104.805582 12.296950 -19.383605 12.422229 -2.274709 -62.333610 16.274410 -35.334477 84.132934 -37.865141 -11.439288 -18.636572 12.057368 0.189609 -0.344742 0.089686 19.700215 -57.912318 -19.340685 72.032388 70.164368 73.351491 -6.097244 -15.574993 -0.119727 0.172575 0.605038 0.085344
-35.986472 56.297554 -5.936758 175.489820 -12.494178 -0.311620 1.867933 13.726019 0.267645 0.163864 1.162746 0.051435 0.270322 1.986272 0.094836 1.832173 12.403072 0.738744 3.025241 11.141652 5.132883 2.066030 -13.930969 4.840996 1.373337 0.933035 1.035775 0.308656 -9.786972 -7.781489 -82.814327 -50.559161 120.730583 -15.259275 -4.925465 -9.502284 -5.235936 -0.826895 1.996991 2.327533 -12.163924 4.335954 61.817116 -46.346222 -104.814786 12.305191 -19.404104 12.446745 -2.257806 -62.331439 16.260272 -35.459317 84.121789 -37.985749 -11.460453 -18.628017 12.062817 0.178450 -0.342568 0.089020 19.708529 -57.903418 -19.350967 72.018716 70.160127 73.338684 -6.106975 -15.568581 -0.120146 0.175707 0.605402 0.088581
-35.988201 56.297781 -5.936582 175.499193 -12.505083 -0.304800 1.865218 13.723566 0.256968 0.163942 1.161858 0.050842 0.278333 1.968184 0.088212 1.821491 12.415781 0.737978 3.017348 11.131463 5.118020 2.060801 -13.941574 4.826423 1.361547 0.923661 1.035036 0.309099 -9.766130 -7.791399 -82.839431 -50.565833 120.739780 -15.271068 -4.941686 -9.510985 -5.244101 -0.815026 2.009153 2.337936 -12.244163 4.346791 61.837081 -46.302118 -104.816594 12.311249 -19.405297 12.469660 -2.229156 -62.325601 16.234517 -35.582844 84.113965 -38.099077 -11.500712 -18.618118 12.069273 0.244040 -0.334074 0.095097 19.717731 -57.885530 -19.361443 71.997259 70.159898 73.320226 -6.124829 -15.567311 -0.123272 0.187526 0.609847 0.095404
-35.988150 56.298242 -5.935917 175.501935 -12.514640 -0.308697 1.867415 13.726462 0.259388 0.165769 1.158016 0.048884 0.279088 1.964232 0.085487 1.833359 12.392913 0.721920 3.002993 11.139802 5.119879 2.053815 -13.949002 4.812714 1.335793 0.933842 1.044408 0.307099 -9.750193 -7.797710 -82.840672 -50.553609 120.737220 -15.271125 -4.953786 -9.517927 -5.281059 -0.808652 2.028320 2.358276 -12.294194 4.366047 61.831290 -46.268974 -104.792928 12.328404 -19.386923 12.491628 -2.229419 -62.317841 16.231663 -35.580475 84.113644 -38.099337 -11.445330 -18.605743 12.060225 0.244551 -0.342014 0.095332 19.721907 -57.871694 -19.356393 71.972856 70.164455 73.303527 -6.135471 -15.571634 -0.126575 0.197315 0.618544 0.099776
-35.991488 56.298461 -5.933151 175.528425 -12.509792 -0.300073 1.841314 13.715704 0.242154 0.164263 1.161115 0.050319 0.279591 1.960961 0.083181 1.832009 12.385873 0.713605 3.003830 11.129779 5.104479 2.046389 -13.955955 4.801437 1.327816 0.921685 1.043170 0.277361 -9.738998 -7.803916 -82.812935 -50.539761 120.731385 -15.247024 -4.981232 -9.539506 -5.296184 -0.827415 2.035565 2.373707 -12.338254 4.386556 61.791310 -46.229711 -104.737457 12.323015 -19.441424 12.494110 -2.226357 -62.324309 16.193436 -35.545894 84.114867 -38.072299 -11.388090 -18.564681 12.040479 0.237771 -0.378176 0.107404 19.739372 -57.865394 -19.394499 71.950480 70.170863 73.290283 -6.178839 -15.634427 -0.134458 0.241852 0.683159 0.119150
-35.992735 56.299503 -5.932336 175.533396 -12.517801 -0.299903 1.837503 13.711894 0.234136 0.164330 1.160979 0.050008 0.279183 1.966863 0.086727 1.826830 12.382587 0.709133 2.997040 11.104650 5.066819 2.050313 -13.970130 4.774724 1.320826 0.912106 1.031975 0.282253 -9.722865 -7.786879 -82.826980 -50.553113 120.731264 -15.213968 -5.020286 -9.587183 -5.312799 -0.876126 2.043075 2.399462 -12.350222 4.406292 61.797742 -46.225070 -104.731512 12.299375 -19.507931 12.497935 -2.220957 -62.317794 16.181018 -35.530118 84.115677 -38.055480 -11.355620 -18.551370 12.035370 0.253628 -0.384894 0.107729 19.767094 -57.845281 -19.414754 71.904936 70.167880 73.260154 -6.190430 -15.637738 -0.131396 0.247542 0.692628 0.120109
-35.994813 56.300956 -5.931993 175.545353 -12.527854 -0.297412 1.823847 13.709865 0.222342 0.166332 1.151667 0.047161 0.277624 1.965844 0.086138 1.826467 12.392758 0.714896 2.998817 11.111553 5.065819 2.055803 -13.999223 4.728280 1.304987 0.909107 1.024222 0.281132 -9.718103 -7.776922 -82.815696 -50.558718 120.719641 -15.224647 -5.020465 -9.585377 -5.311972 -0.872488 2.046859 2.409624 -12.405841 4.428201 61.812372 -46.229455 -104.731890 12.302230 -19.518314 12.522394 -2.208851 -62.308261 16.157875 -35.584297 84.109312 -38.104698 -11.344455 -18.539215 12.037559 0.273882 -0.392098 0.107156 19.766672 -57.830902 -19.422120 71.892970 70.162057 73.243598 -6.189440 -15.631032 -0.120405 0.237287 0.690416 0.114965
-35.996923 56.302491 -5.930663 175.543104 -12.531421 -0.293130 1.827418 13.705069 0.215601 0.165776 1.155388 0.049777 0.277376 1.965493 0.086070 1.824831 12.383179 0.711704 2.995123 11.106376 5.048605 2.057818 -14.005344 4.711639 1.288869 0.908861 1.019126 0.254918 -9.713143 -7.771413 -82.805726 -50.566068 120.710927 -15.239523 -5.023714 -9.599720 -5.327320 -0.893077 2.055623 2.430368 -12.429501 4.449145 61.790826 -46.201503 -104.698191 12.265690 -19.544805 12.539090 -2.195778 -62.305317 16.147569 -35.664941 84.096372 -38.185159 -11.340389 -18.522256 12.042156 0.245379 -0.397091 0.103395 19.781897 -57.823344 -19.431561 71.883113 70.162017 73.231632 -6.187730 -15.625883 -0.112175 0.231342 0.687293 0.111723
-35.998401 56.304331 -5.929359 175.554439 -12.534801 -0.296275 1.821444 13.698822 0.217641 0.163268 1.160036 0.049679 0.277139 1.965313 0.085896 1.823090 12.382720 0.710434 2.992627 11.093314 5.030105 2.056926 -14.004844 4.704747 1.265013 0.885243 1.008502 0.267486 -9.684518 -7.757968 -82.803479 -50.568172 120.710108 -15.231935 -5.037168 -9.639342 -5.352482 -0.946254 2.070322 2.455942 -12.424114 4.465811 61.780294 -46.174730 -104.669674 12.260727 -19.550392 12.548860 -2.206538 -62.301508 16.147377 -35.660626 84.093390 -38.180566 -11.351017 -18.503367 12.048564 0.228238 -0.395109 0.099749 19.788610 -57.817337 -19.439516 71.860450 70.161075 73.216446 -6.202834 -15.613197 -0.111691 0.239722 0.681416 0.115526
-35.998567 56.306545 -5.928448 175.551736 -12.540653 -0.304467 1.822091 13.689284 0.221657 0.164847 1.162610 0.050089 0.277425 1.963923 0.085911 1.826153 12.390907 0.712771 2.989933 11.082227 5.012224 2.062688 -14.007996 4.688056 1.262297 0.887168 1.008397 0.236696 -9.684391 -7.748679 -82.790273 -50.576638 120.701302 -15.230247 -5.042934 -9.662612 -5.356528 -0.949444 2.073990 2.456923 -12.464113 4.494173 61.801926 -46.176611 -104.664847 12.285762 -19.550257 12.557755 -2.220398 -62.294904 16.163860 -35.658202 84.087738 -38.176195 -11.357497 -18.479545 12.053820 0.243934 -0.403934 0.096793 19.806645 -57.807941 -19.440158 71.835966 70.163461 73.207003 -6.215224 -15.609695 -0.111391 0.248534 0.680345 0.118361
-35.999498 56.308432 -5.925142 175.545777 -12.530908 -0.308642 1.824601 13.673879 0.225040 0.167341 1.163534 0.049573 0.277564 1.963462 0.086014 1.826364 12.382911 0.713042 2.991285 11.079302 4.994967 2.069714 -14.015363 4.663308 1.243260 0.889045 1.005019 0.222406 -9.677179 -7.730177 -82.773054 -50.589920 120.682790 -15.224160 -5.044812 -9.671215 -5.369605 -0.968427 2.083299 2.469124 -12.465303 4.510634 61.876091 -46.234792 -104.702976 12.330455 -19.556372 12.579963 -2.225610 -62.301914 16.172283 -35.598640 84.076482 -38.116776 -11.362056 -18.460514 12.060059 0.260068 -0.408418 0.092440 19.822921 -57.815168 -19.445184 71.809012 70.163028 73.182549 -6.212199 -15.601187 -0.105606 0.246829 0.681466 0.114206
-35.999680 56.311031 -5.924184 175.538732 -12.535265 -0.315612 1.826836 13.673653 0.231290 0.171860 1.162244 0.051663 0.277453 1.962106 0.086823 1.826813 12.378738 0.717948 2.990099 11.064443 4.967301 2.067662 -13.998549 4.669506 1.207170 0.874067 0.991294 0.226355 -9.654792 -7.708271 -82.754043 -50.593974 120.654933 -15.214970 -5.058716 -9.718810 -5.398663 -1.014038 2.095467 2.503663 -12.450232 4.526643 61.861997 -46.199547 -104.682687 12.277180 -19.585063 12.588623 -2.236360 -62.292633 16.189450 -35.538685 84.069573 -38.056496 -11.383362 -18.447330 12.069626 0.271134 -0.403774 0.089175 19.824986 -57.811718 -19.433134 71.798840 70.163941 73.177346 -6.214287 -15.593930 -0.108265 0.247450 0.677069 0.115934
-36.001257 56.313619 -5.922957 175.537136 -12.536747 -0.314568 1.824444 13.673010 0.228982 0.166226 1.159362 0.051035 0.277719 1.960171 0.087402 1.829825 12.372703 0.722395 2.994534 11.073936 4.959583 2.071612 -14.003406 4.656568 1.189539 0.878705 0.983548 0.215503 -9.650156 -7.690899 -82.726584 -50.574589 120.593060 -15.205309 -5.036097 -9.707646 -5.404621 -1.021828 2.100613 2.521607 -12.482127 4.558614 61.887270 -46.205861 -104.681125 12.280843 -19.631144 12.602321 -2.232569 -62.288288 16.182440 -35.588922 84.057660 -38.102582 -11.396737 -18.435892 12.081471 0.223303 -0.398227 0.084153 19.830131 -57.809080 -19.435089 71.787214 70.164421 73.167250 -6.215991 -15.584081 -0.112971 0.250159 0.671066 0.119946
-36.002458 56.316076 -5.921143 175.541634 -12.534310 -0.315674 1.817314 13.668201 0.227786 0.159275 1.151557 0.051677 0.281435 1.963645 0.086923 1.828905 12.369103 0.725859 2.997052 11.071023 4.943445 2.080026 -14.017479 4.616733 1.177907 0.884604 0.978104 0.204905 -9.649115 -7.674429 -82.700520 -50.571593 120.556407 -15.203495 -5.022346 -9.698078 -5.405782 -1.031536 2.108023 2.532288 -12.482679 4.564258 61.952970 -46.276607 -104.707652 12.328097 -19.628471 12.624604 -2.243376 -62.285571 16.182230 -35.597264 84.045828 -38.111246 -11.399219 -18.425525 12.090383 0.215002 -0.397808 0.078977 19.841008 -57.809318 -19.445972 71.771569 70.159984 73.155606 -6.220314 -15.571923 -0.109669 0.249684 0.664059 0.118714
